<svg width="396" height="58" viewBox="0 0 396 58" fill="none" xmlns="http://www.w3.org/2000/svg">
<path d="M213.35 33.0911L228.644 16.1572C228.823 15.9501 229.478 15.1733 229.478 15.1733L230.311 14.1893H222.276L222.038 14.4483C222.038 14.4483 221.92 14.6036 221.86 14.6554L208.41 29.1554L195.318 14.6554L194.901 14.1893H187.105L187.938 15.1733C187.938 15.1733 188.593 15.9501 188.772 16.1572L204.007 33.2465L188.117 50.9574C187.938 51.1642 187.224 51.9409 187.224 51.9409L186.272 52.9767H194.425L208.648 37.1822L222.336 52.4591L222.752 52.9767H231.144L213.35 33.0911Z" fill="#0082CA"/>
<path d="M395.635 0.0513306H388.969V53.8051H395.635V0.0513306Z" fill="#0082CA"/>
<path d="M276.731 52.8216L276.671 13.9821H270.125V19.1607C265.84 15.2768 259.77 12.8428 253.104 12.8428C240.071 12.8428 229.538 22.0089 229.538 33.35C229.538 44.6911 240.071 53.8573 253.104 53.8573C259.829 53.8573 265.899 51.4233 270.184 47.4875V52.8216H276.731ZM253.104 48.1607C243.701 48.1607 236.084 41.5321 236.084 33.35C236.084 25.1678 243.701 18.5393 253.104 18.5393C262.507 18.5393 270.125 25.1678 270.125 33.35C270.065 41.5321 262.507 48.1607 253.104 48.1607Z" fill="#0082CA"/>
<path d="M330.351 52.8216L330.292 0H323.745V19.1607C319.461 15.2768 313.39 12.8428 306.725 12.8428C293.691 12.8428 283.158 22.0089 283.158 33.35C283.158 44.6911 293.691 53.8573 306.725 53.8573C313.449 53.8573 319.52 51.4233 323.805 47.4875V52.8216H330.351ZM306.725 48.1607C297.322 48.1607 289.705 41.5322 289.705 33.35C289.705 25.1678 297.322 18.5393 306.725 18.5393C316.128 18.5393 323.745 25.1678 323.745 33.35C323.686 41.5322 316.068 48.1607 306.725 48.1607Z" fill="#0082CA"/>
<path d="M180.975 34.8C180.261 42.2054 173.239 48.1608 164.491 48.3681C158.599 48.5233 153.302 46.0375 150.148 42.1536L180.083 28.7929L185.974 26.1519C182.464 18.2804 173.536 12.7911 163.3 13.05C150.327 13.3608 140.091 22.7858 140.448 34.1269C140.805 45.4679 151.695 54.375 164.669 54.0642C177.703 53.7534 187.939 44.2769 187.581 32.9875C187.581 32.625 187.522 32.2625 187.522 31.9L180.975 34.8ZM146.994 33.9715C146.696 25.7894 154.136 19.0054 163.538 18.7465C168.835 18.5911 173.596 20.6108 176.81 23.8215L147.411 36.9233C147.172 35.9394 147.054 34.9554 146.994 33.9715Z" fill="#0082CA"/>
<path d="M376.889 34.5928C376.175 41.9981 369.153 47.9535 360.404 48.1606C354.512 48.316 349.216 45.8303 346.062 41.9463L375.996 28.5856L381.888 25.9445C378.377 18.0731 369.45 12.5838 359.214 12.8428C346.181 13.1535 335.945 22.6303 336.302 33.9195C336.659 45.2606 347.55 54.1676 360.523 53.8568C373.556 53.5465 383.792 44.0695 383.436 32.7803C383.436 32.4178 383.376 32.0553 383.376 31.6928L376.889 34.5928ZM342.967 33.816C342.669 25.6339 350.109 18.8499 359.511 18.591C364.808 18.4356 369.569 20.4553 372.783 23.666L343.384 36.7678C343.145 35.7838 342.967 34.7999 342.967 33.816Z" fill="#0082CA"/>
<path d="M117.181 16.5278L108.24 21.0631C109.339 22.7639 109.988 24.5955 110.088 26.4707C110.088 26.6451 110.088 26.7759 110.088 26.9504C110.088 28.6075 109.639 30.2646 108.84 31.791C103.844 41.1669 84.7642 48.1879 61.9872 48.1879C59.2398 48.1879 56.5429 48.1008 53.8953 47.8827C45.0543 47.2286 37.0624 45.4842 30.569 43.0421L106.292 9.07067C95.0036 3.48872 79.1698 0 61.5872 0C27.572 0 0 12.9955 0 29C0 35.9338 5.14478 42.3008 13.786 47.2722C14.5353 47.7083 15.3344 48.1443 16.1336 48.5368C17.1326 49.0603 18.1316 49.5397 19.1805 50.0197C22.627 51.546 26.4232 52.8979 30.519 54.0313C32.517 54.5983 34.6149 55.0783 36.7627 55.5142C37.1623 55.6017 37.5619 55.6887 37.9614 55.7757C45.2541 57.2151 53.196 58 61.5872 58C68.1809 58 74.5242 57.5205 80.4681 56.6046C92.1067 54.8603 102.196 51.5021 109.689 47.0977C109.839 47.0105 109.988 46.9233 110.088 46.8361C112.835 45.179 115.233 43.391 117.181 41.4722C117.93 40.7308 118.58 39.9895 119.229 39.2481C120.827 37.2857 121.976 35.1925 122.626 33.0121C123.025 31.7038 123.225 30.3519 123.225 29C123.225 28.6947 123.225 28.3459 123.175 28.0406C123.125 27.5173 123.075 26.9504 122.975 26.4271C122.875 25.9474 122.775 25.4677 122.626 24.9879C121.976 22.8075 120.827 20.7143 119.229 18.7083C118.529 17.9669 117.88 17.2256 117.181 16.5278ZM19.1805 36.6752C15.734 33.7534 13.786 30.4391 13.786 26.9068C13.786 26.7323 13.786 26.6015 13.786 26.4271C14.3854 14.9143 35.6638 5.62557 61.8869 5.62557C71.3775 5.62557 80.2183 6.84661 87.7109 8.93983V8.98347L19.1805 36.6752Z" fill="#0082CA"/>
</svg>
